<svg id="draw.id" overflow="visible" v:layers="{&quot;default&quot;:{&quot;name&quot;:&quot;Default&quot;,&quot;print&quot;:1,&quot;display&quot;:1,&quot;publish&quot;:1},&quot;la5jqmka24s&quot;:{&quot;name&quot;:&quot;fd&quot;,&quot;print&quot;:1,&quot;publish&quot;:1,&quot;display&quot;:1}}" v:ver="2" x="500.5" xmlns="http://www.w3.org/2000/svg" xmlns:v="http://vecta.io" xmlns:xlink="http://www.w3.org/1999/xlink" y="500.5" v:stencils="{&quot;0&quot;:{&quot;id&quot;:&quot;stencil_65&quot;,&quot;expand&quot;:0,&quot;show_name&quot;:1}}"><style xmlns="http://www.w3.org/1999/xhtml"><![CDATA[#draw\.id{stroke:#000;stroke-linecap:round;stroke-linejoin:round;fill:#fff;fill-rule:evenodd;font-family:Roboto;font-size:14px;text-anchor:middle}#draw\.id text{paint-order:stroke;white-space:pre}#draw\.id .Text\.cls{stroke:none}]]></style><defs><style type="text/css">@import url('/fonts/roboto-condensed.css');@import url('/fonts/roboto.css');@import url('/fonts/cousine.css');@import url('/fonts/anonymous-pro.css');@import url('/fonts/lato.css');@import url('/fonts/open-sans.css');@import url('https://fonts.googleapis.com/css?family=Josefin Sans:100thin');@import url('https://fonts.googleapis.com/css?family=Pacifico');@import url('https://fonts.googleapis.com/css?family=GFS Didot');</style></defs><title xmlns="http://www.w3.org/1999/xhtml">Untitled drawing</title><desc xmlns="http://www.w3.org/1999/xhtml"></desc><svg height="432" id="kzdj8yue3d" overflow="visible" v:setup="{&quot;paper&quot;:&quot;CUSTOM&quot;,&quot;unit&quot;:&quot;px&quot;,&quot;scale&quot;:{&quot;from&quot;:&quot;1&quot;,&quot;to&quot;:&quot;1&quot;},&quot;width&quot;:35,&quot;height&quot;:27,&quot;margin&quot;:{&quot;top&quot;:&quot;0&quot;,&quot;bottom&quot;:&quot;0&quot;,&quot;left&quot;:&quot;0&quot;,&quot;right&quot;:&quot;0&quot;},&quot;orient&quot;:0}" viewBox="0 0 35 27" width="560"><g id="lcvxhnhwma" class="Group.cls" transform="translate(0 0)" v:abox="{&quot;x&quot;:0,&quot;y&quot;:0,&quot;width&quot;:34.400001525878906,&quot;height&quot;:26.999992483107917}"><g class="Prim.cls"><g id="lcvxhne7lk" transform="translate(0 0)" class=""><path d="M 0 9 C 0 4.014 4.014 0 9 0 C 13.986 0 18 4.014 18 9 C 18 13.986 13.986 18 9 18 C 4.014 18 0 13.986 0 9 Z" stroke="none" stroke-linejoin="miter" stroke-linecap="butt" fill="#40a6ee" fill-rule="nonzero" stroke-width="0.29999886375371587"/></g><g id="lcvxhnebll" transform="translate(17.99999237060544 17.999992483107917)" class=""><path d="M 0 4.5 C 0 2.007 2.007 0 4.5 0 C 6.993 0 9 2.007 9 4.5 C 9 6.993 6.993 9 4.5 9 C 2.007 9 0 6.993 0 4.5 Z" stroke="none" stroke-linejoin="miter" stroke-linecap="butt" fill="#40a6ee" fill-rule="nonzero" stroke-width="0.29999886375371587"/></g><g id="lcvxhneclm" transform="translate(8.999996185302706 8.999996297805183)" class=""><path d="M 0 9 C 0 9 7.5 7.5 9 13.5 L 13.5 9 C 13.5 9 7.5 7.5 9 0 Z" stroke="none" stroke-linejoin="miter" stroke-linecap="butt" fill="#40a6ee" fill-rule="nonzero" stroke-width="0.9999961886706955"/></g><g id="lcvxhneeln" transform="translate(2.9999923706054403 4.5000077418969795)" class=""><path d="M 0.3 8.4 L 0 9 L 3 3 L 3 6 L 6 0 L 6 6 L 7.5 6 L 9 3 L 9 6 L 10.5 3 L 10.5 6 L 12 3 L 11.7 3.6 M 9 4.5 L 8.25 4.5" stroke="#ffffff" stroke-linecap="butt" fill="none" fill-rule="nonzero" stroke-width="0.449998284901813"/></g><g id="lcvxhneglo" transform="translate(2.500019073486328 10.900000047683715)" class=""><rect x="0" y="0" width="16.999961853027344" height="3.0999999999999996" stroke="none" stroke-linejoin="miter" stroke-linecap="butt" fill-rule="nonzero" stroke-width="0.29999886375371587" fill="none"/><g transform="translate(0 0)" class="Text.cls"><rect x="0" y="0" width="16.999961853027344" height="3.0999999999999996" fill="none" stroke="none"/><text fill="#ffffff" fill-opacity="1" font-size="3px" font-family="Pacifico" class=""><tspan x="8.499980926513672" y="2.5399999523162844">v1.0.0</tspan></text></g></g><g id="lcvxhnfulx" transform="translate(15.5 18.000000047683717)" class=""><rect x="0" y="0" width="14" height="6.6" stroke="none" stroke-linejoin="miter" stroke-linecap="butt" fill-rule="nonzero" stroke-width="0.29999886375371587" fill="none"/><g transform="translate(0 0)" class="Text.cls"><rect x="0" y="0" width="14" height="6.599999904632568" fill="none" stroke="none"/><text fill="#ffffff" fill-opacity="1" font-size="6px" font-family="GFS Didot" class=""><tspan x="7" y="5.279999952316285">η</tspan></text></g></g></g></g></svg></svg>