<svg id="draw.id" overflow="visible" v:layers="{&quot;default&quot;:{&quot;name&quot;:&quot;Default&quot;,&quot;print&quot;:1,&quot;display&quot;:1,&quot;publish&quot;:1},&quot;la5jqmka24s&quot;:{&quot;name&quot;:&quot;fd&quot;,&quot;print&quot;:1,&quot;publish&quot;:1,&quot;display&quot;:1}}" v:ver="2" x="500.5" xmlns="http://www.w3.org/2000/svg" xmlns:v="http://vecta.io" xmlns:xlink="http://www.w3.org/1999/xlink" y="500.5" v:stencils="{&quot;0&quot;:{&quot;id&quot;:&quot;stencil_65&quot;,&quot;expand&quot;:0,&quot;show_name&quot;:1}}"><style xmlns="http://www.w3.org/1999/xhtml"><![CDATA[#draw\.id{stroke:#000;stroke-linecap:round;stroke-linejoin:round;fill:#fff;fill-rule:evenodd;font-family:Roboto;font-size:14px;text-anchor:middle}#draw\.id text{paint-order:stroke;white-space:pre}#draw\.id .Text\.cls{stroke:none}]]></style><defs><style type="text/css">@import url('/fonts/roboto-condensed.css');@import url('/fonts/roboto.css');@import url('/fonts/cousine.css');@import url('/fonts/anonymous-pro.css');@import url('/fonts/lato.css');@import url('/fonts/open-sans.css');@import url('https://fonts.googleapis.com/css?family=Josefin Sans:100thin');@import url('https://fonts.googleapis.com/css?family=Pacifico');@import url('https://fonts.googleapis.com/css?family=GFS Didot');</style></defs><title xmlns="http://www.w3.org/1999/xhtml">Untitled drawing</title><desc xmlns="http://www.w3.org/1999/xhtml"></desc><svg height="180" id="kzdj8yue3d" overflow="visible" v:setup="{&quot;paper&quot;:&quot;CUSTOM&quot;,&quot;unit&quot;:&quot;px&quot;,&quot;scale&quot;:{&quot;from&quot;:&quot;1&quot;,&quot;to&quot;:&quot;1&quot;},&quot;width&quot;:91,&quot;height&quot;:90,&quot;margin&quot;:{&quot;top&quot;:&quot;0&quot;,&quot;bottom&quot;:&quot;0&quot;,&quot;left&quot;:&quot;0&quot;,&quot;right&quot;:&quot;0&quot;},&quot;orient&quot;:0}" viewBox="0 0 91 90" width="182"><g id="lcvxdeemm5" v:abox="{&quot;x&quot;:0,&quot;y&quot;:0,&quot;width&quot;:90.00000053669982,&quot;height&quot;:90}" class="Group.cls" transform="translate(0 0)"><g class="Prim.cls"><g id="lcvxdeadlh" transform="translate(0 0)" class=""><path d="M 0 30 C 0 13.38 13.38 0 30 0 C 46.62 0 60 13.38 60 30 C 60 46.62 46.62 60 30 60 C 13.38 60 0 46.62 0 30 Z" fill-rule="nonzero" stroke="none" stroke-linejoin="miter" stroke-linecap="butt" fill="#40a6ee" stroke-width="0.999996185167943"/></g><g id="lcvxdeahli" transform="translate(60.000000536699815 60)" class=""><path d="M 0 15 C 0 6.69 6.69 0 15 0 C 23.31 0 30 6.69 30 15 C 30 23.31 23.31 30 15 30 C 6.69 30 0 23.31 0 15 Z" fill-rule="nonzero" stroke="none" stroke-linejoin="miter" stroke-linecap="butt" fill="#40a6ee" stroke-width="0.999996185167943"/></g><g id="lcvxdeajlj" transform="translate(29.999998629351182 30)"><path d="M 0 30 C 0 30 25 25 30 45 L 45 30 C 45 30 25 25 30 0 Z" fill-rule="nonzero" stroke="none" stroke-linejoin="miter" stroke-linecap="butt" fill="#40a6ee" stroke-width="0.999996185167943"/></g><g id="lcvxdeaklk" transform="translate(9.999999583025499 15)"><path d="M 1 28 L 0 30 L 10 10 L 10 20 L 20 0 L 20 20 L 25 20 L 30 10 L 30 20 L 35 10 L 35 20 L 40 10 L 39 12 M 30 15 L 27.5 15" fill-rule="nonzero" stroke="#ffffff" stroke-linecap="butt" fill="none" stroke-width="1.4999942777519146"/></g><g id="lcvxdeanll" transform="translate(17.000030322265623 36.60000019073486)" class=""><rect x="0" y="0" fill-rule="nonzero" width="39.53533935546875" height="8.4" stroke="none" stroke-linejoin="miter" stroke-linecap="butt" stroke-width="0.999996185167943" fill="none"/><g transform="translate(0 0)" class="Text.cls"><rect x="0" y="0" width="39.53533935546875" height="8.399999618530273" fill="none" stroke="none"/><text fill="#ffffff" fill-opacity="1" font-size="10.879539999999999" font-family="Pacifico"><tspan x="19.767669677734375" y="7.790248009265136">v1.0.0</tspan></text></g></g><g id="lcvxdec3ls" transform="translate(63.9999875 61.60000019073486)" class=""><rect x="0" y="0" fill-rule="nonzero" width="21.515625" height="17.4" stroke="none" stroke-linejoin="miter" stroke-linecap="butt" stroke-width="0.999996185167943" fill="none"/><g transform="translate(0 0)" class="Text.cls"><rect x="0" y="0" width="21.515625" height="17.399999618530273" fill="none" stroke="none"/><text fill="#ffffff" fill-opacity="1" font-size="22.536189999999998" font-family="GFS Didot"><tspan x="10.7578125" y="16.136942509265136">η</tspan></text></g></g></g></g></svg></svg>