<svg id="draw.id" overflow="visible" v:layers="{&quot;default&quot;:{&quot;name&quot;:&quot;Default&quot;,&quot;print&quot;:1,&quot;display&quot;:1,&quot;publish&quot;:1},&quot;la5jqmka24s&quot;:{&quot;name&quot;:&quot;fd&quot;,&quot;print&quot;:1,&quot;publish&quot;:1,&quot;display&quot;:1}}" v:ver="2" x="500.5" xmlns="http://www.w3.org/2000/svg" xmlns:v="http://vecta.io" xmlns:xlink="http://www.w3.org/1999/xlink" y="500.5" v:stencils="{&quot;0&quot;:{&quot;id&quot;:&quot;stencil_65&quot;,&quot;expand&quot;:0,&quot;show_name&quot;:1}}"><style xmlns="http://www.w3.org/1999/xhtml"><![CDATA[#draw\.id{stroke:#000;stroke-linecap:round;stroke-linejoin:round;fill:#fff;fill-rule:evenodd;font-family:Roboto;font-size:14px;text-anchor:middle}#draw\.id text{paint-order:stroke;white-space:pre}#draw\.id .Text\.cls{stroke:none}]]></style><defs><style type="text/css">@import url('/fonts/roboto-condensed.css');@import url('/fonts/roboto.css');@import url('/fonts/cousine.css');@import url('/fonts/anonymous-pro.css');@import url('/fonts/lato.css');@import url('/fonts/open-sans.css');@import url('https://fonts.googleapis.com/css?family=Josefin Sans:100thin');@import url('https://fonts.googleapis.com/css?family=Pacifico');@import url('https://fonts.googleapis.com/css?family=GFS Didot');</style></defs><title xmlns="http://www.w3.org/1999/xhtml">Untitled drawing</title><desc xmlns="http://www.w3.org/1999/xhtml"></desc><svg height="204" id="kzdj8yue3d" overflow="visible" v:setup="{&quot;paper&quot;:&quot;CUSTOM&quot;,&quot;unit&quot;:&quot;px&quot;,&quot;scale&quot;:{&quot;from&quot;:&quot;1&quot;,&quot;to&quot;:&quot;1&quot;},&quot;width&quot;:377,&quot;height&quot;:102,&quot;margin&quot;:{&quot;top&quot;:&quot;0&quot;,&quot;bottom&quot;:&quot;0&quot;,&quot;left&quot;:&quot;0&quot;,&quot;right&quot;:&quot;0&quot;},&quot;orient&quot;:0}" viewBox="0 0 377 102" width="754"><g id="lcvxhr0qmj" class="Group.cls" transform="translate(0 0)" v:abox="{&quot;x&quot;:0,&quot;y&quot;:0,&quot;width&quot;:376.890625,&quot;height&quot;:101.19999992176758}"><g class="Prim.cls"><g id="lcvxhqx2lk" transform="translate(0.0005 0.0001)" class=""><path d="M 0 33.7333 C 0 15.0453 14.8665 0 33.333 0 C 51.7992 0 66.6653 15.0453 66.6653 33.7333 C 66.6653 52.4225 51.7992 67.4676 33.333 67.4676 C 14.8665 67.4676 0 52.4225 0 33.7333 Z" stroke="none" stroke-linejoin="miter" stroke-linecap="butt" fill="#40a6ee" fill-rule="nonzero" stroke-width="0.9999961886706955"/></g><g id="lcvxhqx7ll" transform="translate(66.667 67.4674)" class=""><path d="M 0 16.8669 C 0 7.5224 7.4333 0 16.6665 0 C 25.9 0 33.333 7.5224 33.333 16.8669 C 33.333 26.2108 25.9 33.7333 16.6665 33.7333 C 7.4333 33.7333 0 26.2108 0 16.8669 Z" stroke="none" stroke-linejoin="miter" stroke-linecap="butt" fill="#40a6ee" fill-rule="nonzero" stroke-width="0.9999961886706955"/></g><g id="lcvxhqx8lm" transform="translate(33.3334 33.7335)" class=""><path d="M 0 33.7333 C 0 33.7333 27.7774 28.111 33.333 50.6009 L 49.9996 33.7333 C 49.9996 33.7333 27.7774 28.111 33.333 0 Z" stroke="none" stroke-linejoin="miter" stroke-linecap="butt" fill="#40a6ee" fill-rule="nonzero" stroke-width="0.9999961886706955"/></g><g id="lcvxhqx9ln" transform="translate(11.1122 16.8665)" class=""><path d="M 1.1111 31.4848 L 0 33.7333 L 11.1111 11.2446 L 11.1111 22.4893 L 22.2222 0 L 22.2222 22.4893 L 27.7774 22.4893 L 33.333 11.2446 L 33.333 22.4893 L 38.8885 11.2446 L 38.8885 22.4893 L 44.4441 11.2446 L 43.333 13.4932 M 33.333 16.8669 L 30.5556 16.8669" stroke="#ffffff" stroke-linecap="butt" fill="none" fill-rule="nonzero" stroke-width="1.4999942830060433"/></g><g id="lcvxhqxalo" transform="translate(11.1108 38.0056)" class=""><rect x="0" y="0" width="59.16727260750985" height="17.54148846514521" stroke="none" stroke-linejoin="miter" stroke-linecap="butt" fill-rule="nonzero" stroke-width="0.9999961886706955" fill="none"/><g transform="translate(0 0)" class="Text.cls"><rect x="0" y="0" width="59.167234460499046" height="17.54148846514521" fill="none" stroke="none"/><text fill="#ffffff" fill-opacity="1" font-size="11px" font-family="Pacifico" class=""><tspan x="29.5836181640625" y="12.400744323730468">v1.0.0</tspan></text></g></g><g id="lcvxhqydlx" transform="translate(69.4436 67.1167)" class=""><rect x="0" y="0" width="25.833" height="23.6135" stroke="none" stroke-linejoin="miter" stroke-linecap="butt" fill-rule="nonzero" stroke-width="0.9999961886706955" fill="none"/><g transform="translate(0 0)" class="Text.cls"><rect x="0" y="0" width="25.83301838685849" height="23.613545022890946" fill="none" stroke="none"/><text fill="#ffffff" fill-opacity="1" font-size="24px" font-family="GFS Didot" class=""><tspan x="12.916509628295898" y="19.726772232055666">η</tspan></text></g></g><g id="lcvxhqyzm4" transform="translate(90 15.000001525878908)" class=""><rect x="0" y="0" width="305" height="76.19999694824219" stroke="none" stroke-linejoin="miter" stroke-linecap="butt" fill="none" fill-rule="nonzero" stroke-width="0.9999961886706955"/><g transform="translate(0 0)" class="Text.cls"><rect x="0" y="0" width="305" height="76.19999694824219" fill="none" stroke="none"/><text fill="#000000" fill-opacity="1" font-size="98.69297" font-family="Josefin Sans"><tspan x="152.5" y="70.66867857412109">NLAN</tspan></text></g></g></g></g></svg></svg>